<mxfile host="drawio-plugin" modified="2022-02-21T16:05:05.102Z" agent="5.0 (Macintosh; Intel Mac OS X 12_2_1) AppleWebKit/537.36 (KHTML, like Gecko) Chrome/89.0.4389.114 Safari/537.36" etag="MoNDlwRqMKP5MiVvFTXP" version="15.5.4" type="embed"><diagram id="DWjpSvbVxY2pOprUcE6g" name="Page-1"><mxGraphModel dx="901" dy="437" grid="1" gridSize="10" guides="1" tooltips="1" connect="1" arrows="1" fold="1" page="1" pageScale="1" pageWidth="827" pageHeight="1169" math="0" shadow="0"><root><mxCell id="0"/><mxCell id="1" parent="0"/><mxCell id="22" value="&amp;nbsp; Analytical Data" style="rounded=0;whiteSpace=wrap;html=1;fillColor=#f5f5f5;fontColor=#333333;strokeColor=#666666;fontStyle=1;verticalAlign=top;align=left;sketch=1;" parent="1" vertex="1"><mxGeometry x="290" y="220" width="300" height="200" as="geometry"/></mxCell><mxCell id="19" style="rounded=0;orthogonalLoop=1;jettySize=auto;html=1;startArrow=classic;startFill=1;endArrow=none;endFill=0;dashed=1;exitX=0.5;exitY=0;exitDx=0;exitDy=0;sketch=1;" parent="1" source="AsHQjoa6ET488TH-mFAR-45" target="18" edge="1"><mxGeometry relative="1" as="geometry"/></mxCell><mxCell id="20" style="rounded=0;orthogonalLoop=1;jettySize=auto;html=1;entryX=0;entryY=0.25;entryDx=0;entryDy=0;exitX=1;exitY=0.5;exitDx=0;exitDy=0;sketch=1;" parent="1" source="AsHQjoa6ET488TH-mFAR-44" target="24" edge="1"><mxGeometry relative="1" as="geometry"><mxPoint x="635.5" y="410" as="targetPoint"/></mxGeometry></mxCell><mxCell id="21" value="" style="edgeStyle=orthogonalEdgeStyle;rounded=0;orthogonalLoop=1;jettySize=auto;html=1;startArrow=classic;startFill=1;endArrow=none;endFill=0;exitX=0;exitY=0.5;exitDx=0;exitDy=0;sketch=1;" parent="1" source="AsHQjoa6ET488TH-mFAR-43" target="23" edge="1"><mxGeometry relative="1" as="geometry"/></mxCell><mxCell id="35" value="ingest" style="edgeLabel;html=1;align=center;verticalAlign=middle;resizable=0;points=[];sketch=1;" parent="21" vertex="1" connectable="0"><mxGeometry x="-0.0712" y="2" relative="1" as="geometry"><mxPoint x="-15" y="-12" as="offset"/></mxGeometry></mxCell><mxCell id="23" value="Operational Data" style="rounded=0;whiteSpace=wrap;html=1;fillColor=#f5f5f5;fontColor=#333333;strokeColor=#666666;fontStyle=1;sketch=1;" parent="1" vertex="1"><mxGeometry x="117" y="300" width="120" height="60" as="geometry"/></mxCell><mxCell id="24" value="Data Product" style="rounded=0;whiteSpace=wrap;html=1;fillColor=#f5f5f5;fontColor=#333333;strokeColor=#666666;fontStyle=1;sketch=1;" parent="1" vertex="1"><mxGeometry x="661" y="300" width="120" height="60" as="geometry"/></mxCell><mxCell id="30" value="Domain" style="ellipse;whiteSpace=wrap;html=1;verticalAlign=top;sketch=1;" parent="1" vertex="1"><mxGeometry x="105" y="405" width="140" height="100" as="geometry"/></mxCell><mxCell id="AsHQjoa6ET488TH-mFAR-56" style="edgeStyle=orthogonalEdgeStyle;rounded=0;orthogonalLoop=1;jettySize=auto;html=1;entryX=0.5;entryY=1;entryDx=0;entryDy=0;sketch=1;" parent="1" source="31" target="24" edge="1"><mxGeometry relative="1" as="geometry"/></mxCell><mxCell id="31" value="Data Product" style="rounded=0;whiteSpace=wrap;html=1;fillColor=#f5f5f5;fontColor=#333333;strokeColor=#666666;fontStyle=1;sketch=1;" parent="1" vertex="1"><mxGeometry x="132" y="435" width="90" height="40" as="geometry"/></mxCell><mxCell id="40" style="rounded=0;orthogonalLoop=1;jettySize=auto;html=1;sketch=1;" parent="1" edge="1"><mxGeometry relative="1" as="geometry"><mxPoint x="770" y="141" as="targetPoint"/><mxPoint x="690" y="141" as="sourcePoint"/></mxGeometry></mxCell><mxCell id="41" value="Data Flow" style="edgeLabel;html=1;align=center;verticalAlign=middle;resizable=0;points=[];sketch=1;" parent="40" vertex="1" connectable="0"><mxGeometry x="-0.2289" relative="1" as="geometry"><mxPoint x="5" y="-10" as="offset"/></mxGeometry></mxCell><mxCell id="42" style="rounded=0;orthogonalLoop=1;jettySize=auto;html=1;dashed=1;sketch=1;" parent="1" edge="1"><mxGeometry relative="1" as="geometry"><mxPoint x="770" y="168" as="targetPoint"/><mxPoint x="690" y="168" as="sourcePoint"/></mxGeometry></mxCell><mxCell id="43" value="Usage" style="edgeLabel;html=1;align=center;verticalAlign=middle;resizable=0;points=[];sketch=1;" parent="42" vertex="1" connectable="0"><mxGeometry x="-0.2289" relative="1" as="geometry"><mxPoint x="5" y="-10" as="offset"/></mxGeometry></mxCell><mxCell id="AsHQjoa6ET488TH-mFAR-46" style="rounded=0;orthogonalLoop=1;jettySize=auto;html=1;sketch=1;" parent="1" source="AsHQjoa6ET488TH-mFAR-43" target="AsHQjoa6ET488TH-mFAR-44" edge="1"><mxGeometry relative="1" as="geometry"/></mxCell><mxCell id="AsHQjoa6ET488TH-mFAR-47" style="rounded=0;orthogonalLoop=1;jettySize=auto;html=1;entryX=0;entryY=0.5;entryDx=0;entryDy=0;sketch=1;" parent="1" source="AsHQjoa6ET488TH-mFAR-43" target="AsHQjoa6ET488TH-mFAR-45" edge="1"><mxGeometry relative="1" as="geometry"/></mxCell><mxCell id="AsHQjoa6ET488TH-mFAR-43" value="raw" style="rounded=1;whiteSpace=wrap;html=1;fontStyle=1;sketch=1;" parent="1" vertex="1"><mxGeometry x="320" y="310" width="80" height="40" as="geometry"/></mxCell><mxCell id="AsHQjoa6ET488TH-mFAR-49" value="manual" style="rounded=1;whiteSpace=wrap;html=1;fontStyle=1;sketch=1;" parent="1" vertex="1"><mxGeometry x="460" y="366" width="80" height="40" as="geometry"/></mxCell><mxCell id="AsHQjoa6ET488TH-mFAR-51" style="edgeStyle=none;rounded=0;orthogonalLoop=1;jettySize=auto;html=1;entryX=0;entryY=0.5;entryDx=0;entryDy=0;sketch=1;" parent="1" source="AsHQjoa6ET488TH-mFAR-50" target="AsHQjoa6ET488TH-mFAR-49" edge="1"><mxGeometry relative="1" as="geometry"/></mxCell><mxCell id="AsHQjoa6ET488TH-mFAR-50" value="" style="shape=umlActor;verticalLabelPosition=bottom;verticalAlign=top;html=1;outlineConnect=0;sketch=1;" parent="1" vertex="1"><mxGeometry x="380" y="368.5" width="20" height="35" as="geometry"/></mxCell><mxCell id="AsHQjoa6ET488TH-mFAR-57" style="rounded=0;orthogonalLoop=1;jettySize=auto;html=1;entryX=0;entryY=0.5;entryDx=0;entryDy=0;exitX=1;exitY=0.5;exitDx=0;exitDy=0;sketch=1;" parent="1" source="AsHQjoa6ET488TH-mFAR-45" target="24" edge="1"><mxGeometry relative="1" as="geometry"><mxPoint x="910" y="350" as="targetPoint"/><mxPoint x="550" y="280" as="sourcePoint"/></mxGeometry></mxCell><mxCell id="AsHQjoa6ET488TH-mFAR-58" style="rounded=0;orthogonalLoop=1;jettySize=auto;html=1;entryX=0;entryY=0.75;entryDx=0;entryDy=0;exitX=1;exitY=0.5;exitDx=0;exitDy=0;sketch=1;" parent="1" source="AsHQjoa6ET488TH-mFAR-49" target="24" edge="1"><mxGeometry relative="1" as="geometry"><mxPoint x="920" y="360" as="targetPoint"/><mxPoint x="560" y="290" as="sourcePoint"/></mxGeometry></mxCell><mxCell id="AsHQjoa6ET488TH-mFAR-59" style="rounded=0;orthogonalLoop=1;jettySize=auto;html=1;startArrow=classic;startFill=1;endArrow=none;endFill=0;dashed=1;exitX=0.25;exitY=0;exitDx=0;exitDy=0;sketch=1;" parent="1" source="AsHQjoa6ET488TH-mFAR-44" edge="1"><mxGeometry relative="1" as="geometry"><mxPoint x="510" y="260" as="sourcePoint"/><mxPoint x="480" y="192" as="targetPoint"/></mxGeometry></mxCell><mxCell id="AsHQjoa6ET488TH-mFAR-60" style="rounded=0;orthogonalLoop=1;jettySize=auto;html=1;startArrow=classic;startFill=1;endArrow=none;endFill=0;dashed=1;exitX=0.75;exitY=0;exitDx=0;exitDy=0;sketch=1;" parent="1" source="AsHQjoa6ET488TH-mFAR-49" edge="1"><mxGeometry relative="1" as="geometry"><mxPoint x="510" y="320" as="sourcePoint"/><mxPoint x="520" y="189" as="targetPoint"/></mxGeometry></mxCell><mxCell id="AsHQjoa6ET488TH-mFAR-61" value="Domain" style="ellipse;whiteSpace=wrap;html=1;verticalAlign=top;sketch=1;" parent="1" vertex="1"><mxGeometry x="103" y="111" width="140" height="100" as="geometry"/></mxCell><mxCell id="AsHQjoa6ET488TH-mFAR-62" value="Data Product" style="rounded=0;whiteSpace=wrap;html=1;fillColor=#f5f5f5;fontColor=#333333;strokeColor=#666666;fontStyle=1;sketch=1;" parent="1" vertex="1"><mxGeometry x="130" y="141" width="90" height="40" as="geometry"/></mxCell><mxCell id="AsHQjoa6ET488TH-mFAR-63" style="rounded=0;orthogonalLoop=1;jettySize=auto;html=1;startArrow=classic;startFill=1;endArrow=none;endFill=0;dashed=1;exitX=1;exitY=0.5;exitDx=0;exitDy=0;entryX=0;entryY=0.5;entryDx=0;entryDy=0;sketch=1;" parent="1" source="AsHQjoa6ET488TH-mFAR-62" target="18" edge="1"><mxGeometry relative="1" as="geometry"><mxPoint x="490" y="301" as="sourcePoint"/><mxPoint x="490" y="201" as="targetPoint"/></mxGeometry></mxCell><mxCell id="AsHQjoa6ET488TH-mFAR-64" value="clean" style="text;html=1;strokeColor=none;fillColor=none;align=center;verticalAlign=middle;whiteSpace=wrap;rounded=0;sketch=1;" parent="1" vertex="1"><mxGeometry x="400" y="302" width="60" height="30" as="geometry"/></mxCell><mxCell id="AsHQjoa6ET488TH-mFAR-66" value="aggregate" style="text;html=1;strokeColor=none;fillColor=none;align=center;verticalAlign=middle;whiteSpace=wrap;rounded=0;sketch=1;" parent="1" vertex="1"><mxGeometry x="592" y="305" width="60" height="30" as="geometry"/></mxCell><mxCell id="AsHQjoa6ET488TH-mFAR-69" value="enter" style="text;html=1;strokeColor=none;fillColor=none;align=center;verticalAlign=middle;whiteSpace=wrap;rounded=0;sketch=1;" parent="1" vertex="1"><mxGeometry x="400" y="361" width="60" height="30" as="geometry"/></mxCell><mxCell id="AsHQjoa6ET488TH-mFAR-44" value="events" style="rounded=1;whiteSpace=wrap;html=1;fontStyle=1;sketch=1;" parent="1" vertex="1"><mxGeometry x="460" y="250" width="80" height="40" as="geometry"/></mxCell><mxCell id="AsHQjoa6ET488TH-mFAR-45" value="entities" style="rounded=1;whiteSpace=wrap;html=1;fontStyle=1;sketch=1;" parent="1" vertex="1"><mxGeometry x="460" y="310" width="80" height="40" as="geometry"/></mxCell><mxCell id="18" value="Analysis" style="rounded=0;whiteSpace=wrap;html=1;fillColor=#f5f5f5;fontColor=#333333;strokeColor=#666666;fontStyle=1;sketch=1;" parent="1" vertex="1"><mxGeometry x="440" y="131" width="120" height="60" as="geometry"/></mxCell></root></mxGraphModel></diagram></mxfile>